<svg xmlns="http://www.w3.org/2000/svg" viewBox="0 0 610.27 309.83"><title>Trash Island</title><g id="Layer_2" fill="white" data-name="Layer 2"><g id="Layer_1-2" data-name="Layer 1"><path d="M260.7,285.66a5,5,0,0,1-3.75-8.3c18.88-21.49,16.51-28.73,15.33-30.44-2.25-3.28-15.6-12.34-92.42,8.7-42.41,11.62-83.07,26.71-83.47,26.86a5,5,0,0,1-5.62-7.84L95.39,269a5,5,0,0,1,7-.72,5.49,5.49,0,0,1,1,1.07c15-5.29,44-15.17,73.81-23.34,80.35-22,97.44-13.24,103.3-4.73,6,8.74.88,20.37-6.54,30.84,23.95-6,74.35-18,128.07-27.37,100.58-17.46,164.54-17.41,190.1.14,7.9,5.42,12.37,12.54,13.29,21.13a5,5,0,0,1-10,1.06c-.6-5.64-3.54-10.2-9-14-23-15.79-86.19-15.29-182.73,1.47C330.05,267.36,262.67,285.31,262,285.49A4.77,4.77,0,0,1,260.7,285.66Z"/><path d="M364.47,274h-1.85a3.26,3.26,0,0,0-2.11,1.08,3.47,3.47,0,0,0-.93,2.28v29.13a2.51,2.51,0,0,0,.93,1.85,2.86,2.86,0,0,0,2.11.66h1.85a3,3,0,0,0,2.15-.66,2.57,2.57,0,0,0,1-1.85V277.36a3.5,3.5,0,0,0-1-2.28A3.38,3.38,0,0,0,364.47,274Z"/><path d="M400,289h0c-2.45-1-4.3-1.35-5.5-1.8a5.83,5.83,0,0,1-2.17-1.34,1.87,1.87,0,0,1-.46-1.38,2.28,2.28,0,0,1,1.11-2.09,6.63,6.63,0,0,1,3.67-1,6,6,0,0,1,3.7,1,7,7,0,0,1,2,2.2,5.09,5.09,0,0,0,1.05,1.58,3.12,3.12,0,0,0,1.82.78h1.85a3,3,0,0,0,1.86-1,2.67,2.67,0,0,0,.8-2.14,8.75,8.75,0,0,0-1.8-4.51,12.84,12.84,0,0,0-4.56-3.81,16.06,16.06,0,0,0-13.38-.14,10.34,10.34,0,0,0-4.33,3.82,9.8,9.8,0,0,0-1.46,5.2,9.23,9.23,0,0,0,2.37,6.42,14.2,14.2,0,0,0,7.14,3.77c2.63.68,4.64,1.25,6,1.7a8.27,8.27,0,0,1,2.72,1.41,1.5,1.5,0,0,1,.61,1.22,2.6,2.6,0,0,1-1.49,2.3,8.72,8.72,0,0,1-4.69,1.17,7.27,7.27,0,0,1-4.24-1.05,5.8,5.8,0,0,1-2.09-2.31,3.6,3.6,0,0,0-1.2-1.55,3.17,3.17,0,0,0-1.72-.52H385.8a2.7,2.7,0,0,0-1.88.84,2.74,2.74,0,0,0-.78,2,8.44,8.44,0,0,0,2,4.89,13.27,13.27,0,0,0,4.93,3.7,16.16,16.16,0,0,0,6.79,1.42,17.83,17.83,0,0,0,7-1.3,11.7,11.7,0,0,0,5-3.8,9.63,9.63,0,0,0,1.83-5.77,8.19,8.19,0,0,0-2.69-6.42C406.38,291,403.76,290,400,289Z"/><path d="M450,302.84a2.87,2.87,0,0,0-2-.84H434.58V277.36a3.57,3.57,0,0,0-1-2.28,3.4,3.4,0,0,0-2.16-1.08H429.6a3.24,3.24,0,0,0-2.1,1.08,3.51,3.51,0,0,0-.92,2.28v29.13a2.54,2.54,0,0,0,.91,1.85,2.87,2.87,0,0,0,2.11.66H448a2.41,2.41,0,0,0,1.91-.66,2.35,2.35,0,0,0,.71-1.85v-1.62a2.77,2.77,0,0,0-.71-2Z"/><path d="M483.85,277v-.24a3.92,3.92,0,0,0-3.58-2.78h-2.71a3.93,3.93,0,0,0-3.59,2.79l-11,28.5a3.46,3.46,0,0,0-.32,1.37,2.26,2.26,0,0,0,.78,1.72,2.52,2.52,0,0,0,1.88.62H467a3.27,3.27,0,0,0,3.32-2.13L472.2,302h13.37l1.91,4.83a3.28,3.28,0,0,0,3.33,2.17h1.67a2.5,2.5,0,0,0,1.88-.59,2.42,2.42,0,0,0,.79-1.79,2.82,2.82,0,0,0-.3-1.18Zm-1.16,18h-7.61l3.82-9.8Z"/><path d="M534,274h-1.85a2.76,2.76,0,0,0-1.87,1.08,3.31,3.31,0,0,0-.68,2.28V294l-11.75-17.42a8.58,8.58,0,0,0-1.19-1.57,3.55,3.55,0,0,0-2.19-1h-1.58a3.6,3.6,0,0,0-2.24,1.08,3.66,3.66,0,0,0-1.05,2.28v29.13a2.68,2.68,0,0,0,1.05,1.85,3.13,3.13,0,0,0,2.24.66h1.85a2.64,2.64,0,0,0,2-.66,2.44,2.44,0,0,0,.84-1.85V289.84l11.59,17.42a4.92,4.92,0,0,0,1.12,1.15,3,3,0,0,0,2.11.59H534a2.36,2.36,0,0,0,1.89-.66,2.32,2.32,0,0,0,.71-1.85V277.36a3.33,3.33,0,0,0-.71-2.28A2.78,2.78,0,0,0,534,274Z"/><path d="M582.65,288.33A14.38,14.38,0,0,0,580.7,281a13.23,13.23,0,0,0-5.26-5.1A16.46,16.46,0,0,0,568,274H557.7a3.36,3.36,0,0,0-2.15,1.08,3.57,3.57,0,0,0-1,2.28v29.13a2.6,2.6,0,0,0,1,1.85,3,3,0,0,0,2.16.66h10.6a15.66,15.66,0,0,0,7.31-1.46,12.37,12.37,0,0,0,5.15-4.78,14.52,14.52,0,0,0,1.89-7.26c0-.94.05-2.13.05-3.6S582.68,289.25,582.65,288.33Zm-7.58,3.6c0,1.29,0,2.39-.05,3.29a7.83,7.83,0,0,1-1.69,5c-1,1.17-2.77,1.77-5.25,1.77h-5.5V282h5.27c2.5,0,4.31.54,5.39,1.75a7.38,7.38,0,0,1,1.78,4.92C575.05,289.56,575.07,290.63,575.07,291.93Z"/><path d="M444.38,8.41q1.65,3.71-1.65,4.94a14.55,14.55,0,0,1-5.36,2.89q-2.88.82-6.18,1.65a7.55,7.55,0,0,1-4.94,0A8.63,8.63,0,0,1,421.71,15a3.56,3.56,0,0,1-1.23-2.47q-3.32-.4-6.19-.62t-6.18-.21H404.2a19.58,19.58,0,0,1-3.92-.41H394.1c-2.48,0-5-.06-7.42-.2s-4.95-.21-7.42-.21q-16.9,0-33.18.62T312.9,12.94q-37.5,1.65-76.24,5l-38.33,3.29q-19,1.65-38.33,3.71Q140.22,27,120.64,29.22T81.28,33.55q-9.5.83-19.38,1.65T42.53,37.67q-7.81.82-15.66,2.06A103.25,103.25,0,0,1,10.8,41,29,29,0,0,1,5,39.52,8.42,8.42,0,0,1,.49,35.61a3.14,3.14,0,0,1,.62-4.12,6.32,6.32,0,0,1,4.33-1.65,66.17,66.17,0,0,0,13.81-.62c4.53-.68,9.14-1.3,13.8-1.86q7.83-1.23,15.67-2.06l15.66-1.64Q81.69,22,98.79,20t34.42-4.13q38.32-4.53,76.25-7.62t76.65-5.15Q305.9,1.81,325.68,1T365.25.16Q383-.25,400.69.37a342.15,342.15,0,0,1,35.45,3.09,17.42,17.42,0,0,1,4.94,1.65A6.38,6.38,0,0,1,444.38,8.41ZM196.27,34.78q5.76,0,7.83,4.95a5.54,5.54,0,0,1,.2,3.91c-.41,1.24-.89,2.55-1.44,3.92a72.12,72.12,0,0,1-3.71,7.21q-2.07,3.51-4.12,6.8a69.77,69.77,0,0,1-4.33,6.19,71.08,71.08,0,0,0-4.33,6.18q-4.12,7-9.48,14.42-9.48,14.43-18.54,28.85l-18.14,28.85-20.6,34.21L99,214.07q-9.5,16.89-18.14,34A363,363,0,0,0,65.2,283.72Q64,287,59.84,286.61a9.83,9.83,0,0,1-6.18-2.48q-4.53-3.7-4.12-8.24A8.75,8.75,0,0,1,50.78,273,22.75,22.75,0,0,0,52,271a4,4,0,0,1,3.71-2.48,431.85,431.85,0,0,1,24.94-50.69Q94.88,193,109.71,169.14l21-34.2,10.72-17.31q5.36-8.66,11.13-16.9l22.25-34.21A83.2,83.2,0,0,1,180,58.89a82.25,82.25,0,0,0,5.15-7.62,21.26,21.26,0,0,1,2.06-3.92,21.14,21.14,0,0,0,2.06-3.91l1.65-4.12c.55-1.37,1-2.06,1.23-2.06l.83-.83.41-.41-.41.41C193.24,35.34,194.34,34.78,196.27,34.78Z"/><path d="M175.5,144.42q5.35-2.07,9.07,1.64c.54.56.54,1.72,0,3.51s-1.31,3.85-2.27,6.18a46.53,46.53,0,0,1-3.5,6.8q-2.07,3.3-3.3,5.36,8.24-5.78,17.1-11.54t18.76-11.13l2.47-1.24,3.71-1.65a63.35,63.35,0,0,1,8.86-3.29,90,90,0,0,1,8.86-2.06h.41a11.9,11.9,0,0,0,2.89-.42h3.71a5.81,5.81,0,0,1,2.47.42,18.85,18.85,0,0,1,5.56,2.68c1.79,1.23,2.41,3.23,1.86,6-.83,1.65-2.47,2.34-4.95,2.06a30.29,30.29,0,0,1-6.18-1.23q-4.54,0-11.54,2.88-7,3.3-12.36,6.18L213,157.6l-7.83,4.54L200.64,165l-9.89,5.77-7.42,5.77L173,186.45l-9.47,8.66-9.48,10.72q-1.65,2.88-2.68,4.32t-3.09,4.74a9.15,9.15,0,0,1-1.24,2.06c-.55.83-1.71,1.1-3.5.83a27.46,27.46,0,0,1-3.92-.83,8.79,8.79,0,0,1-3.09-2.88c-1-1.37-1.17-2.47-.62-3.3l4.95-7.42q2.88-4.53,4.74-7.21c1.23-1.78,2.26-3.3,3.09-4.53s1.58-2.48,2.27-3.71,1.44-2.68,2.26-4.33l2.48-4.95L164.37,163a93,93,0,0,1,4.95-10.71A23.34,23.34,0,0,1,175.5,144.42Z"/><path d="M378.27,149.36a11.28,11.28,0,0,1,3.3,2.68q1.64,1.86,0,3.09-10.31,9.08-20,17.31a196.61,196.61,0,0,1-21.23,15.66q-5.36,3.32-8.44,5.57a50.27,50.27,0,0,1-7.22,4.32q-12.36,7-18.13,9.48a49,49,0,0,1-10.31,3.3,54.58,54.58,0,0,1-15.66-.62,17,17,0,0,1-12.36-8.45,13.34,13.34,0,0,1-2.27-8.24,42.08,42.08,0,0,1,1.44-9.07,81.66,81.66,0,0,1-6,6.19q-3.09,2.88-6.39,6.18a50.46,50.46,0,0,0-6,6.18,24.22,24.22,0,0,1-6,5.36,33.44,33.44,0,0,1-11.54,6.59,17,17,0,0,1-7.83,1.45,15.89,15.89,0,0,1-8.25-3.1,11.25,11.25,0,0,1-4.12-5.56,20.46,20.46,0,0,1-1.24-6.8,31.14,31.14,0,0,1,4.13-14.22,105.08,105.08,0,0,1,8.24-12.16A143.06,143.06,0,0,1,233,162.76a86.47,86.47,0,0,1,12.16-10.1A85.31,85.31,0,0,1,267,141.94a21.29,21.29,0,0,1,4.95-1.23,17.81,17.81,0,0,1,5.36,0,17.17,17.17,0,0,1,5.77,3.09,4.08,4.08,0,0,1,1.23,5.56,3.3,3.3,0,0,1-2.88,2.27,8.59,8.59,0,0,1-4.12-.62,4.58,4.58,0,0,0-3.1-.62,8.64,8.64,0,0,0-2.67.62A118.37,118.37,0,0,0,253,161.73q-3.71,3.3-8,7.21a79.33,79.33,0,0,0-8,8.45c-2.47,3-4.87,6.12-7.21,9.27a40.92,40.92,0,0,0-5.56,10.51,32,32,0,0,0-1.24,5.15,11,11,0,0,0,.41,5.15,1.64,1.64,0,0,0,1.24-.41,55.32,55.32,0,0,0,12.16-8.24A128.52,128.52,0,0,0,248,187.28l23.91-25.55,12.77-11.54.42-.42a41.58,41.58,0,0,1,4.53-5.35,42.37,42.37,0,0,0,4.53-5.36,5.28,5.28,0,0,1,3.3-1.45,10.57,10.57,0,0,1,4.12.42,8.28,8.28,0,0,1,3.51,2.06,4.33,4.33,0,0,1,1.44,3.09v.41c0,1.1-.69,2.62-2.06,4.53s-3,3.92-4.74,6-3.65,4.12-5.57,6.18a33.44,33.44,0,0,0-4.12,5.16,23.6,23.6,0,0,1-1.85,3.09,22.6,22.6,0,0,0-1.86,3.09,76.55,76.55,0,0,0-3.71,7.62,50.73,50.73,0,0,0-2.47,7.21q-3.3,8.66.62,13t11.33,2.26a81.44,81.44,0,0,0,11.75-4.94q5.56-2.88,12.16-6.18a167.34,167.34,0,0,0,28-19q12.78-10.71,26-22.26a7.06,7.06,0,0,1,4.33-1A11,11,0,0,1,378.27,149.36Z"/><path d="M478,149.36a3.53,3.53,0,0,1,.83,4.95,42,42,0,0,1-4.12,4.32q-2.07,1.86-5,4.33c-1.38,1.38-2.82,2.68-4.33,3.92s-3.09,2.54-4.74,3.91q-4.93,3.72-8,6.39a103.71,103.71,0,0,1-8.45,6.39q-7.43,5.35-15.25,10.3t-16.08,9.48q-11.13,5.78-19.78,9.28a101.4,101.4,0,0,1-21,5.56c-1.65.27-3.37.48-5.15.62s-3.5.2-5.15.2l-1.24,3.71c-.82,3.57-2.68,5.57-5.56,6a15.82,15.82,0,0,1-8.87-1.44,26.85,26.85,0,0,1-7.41-6.6,200.61,200.61,0,0,0-15.46-15.45,25.53,25.53,0,0,1-7.62-10.1,2.17,2.17,0,0,1-.42-2.27,3.74,3.74,0,0,1,2.48-2.26c3-.83,5.29-.55,6.8.82s3.23,3,5.15,4.95A77.82,77.82,0,0,0,338.5,204a31.58,31.58,0,0,0,11.75,5.15q3.3-11.94,6.18-23.08a142.68,142.68,0,0,1,7.83-22.25,87.73,87.73,0,0,1,12.78-20,44.1,44.1,0,0,1,19.78-13.4,9.14,9.14,0,0,1,6,.41,7.81,7.81,0,0,1,4.32,3.71c1.1,1.93.34,3.51-2.26,4.74s-6,3.09-10.1,5.57l-5.57,5.56a55.12,55.12,0,0,0-9.27,13.4l-1.24,2.47-2.47,5.36-4.12,11.54q-2.47,6.6-4.33,13.6t-3.5,12.78a41.85,41.85,0,0,0,11.54-1.65q5.76-1.65,11.54-3.71c3.84-1.37,6.39-2.27,7.62-2.68a13,13,0,0,0,3.1-1.44,96.6,96.6,0,0,0,9.68-5.36q3.09-2.05,8.86-5.36,6.58-4.11,12.16-8.24t11.75-8.66l13.6-10.71c2.47-1.92,5-4.13,7.62-6.6a70.14,70.14,0,0,1,8-6.59,5.65,5.65,0,0,1,4.12-.83A13.18,13.18,0,0,1,478,149.36Z"/><path d="M600.83,145.24a3.42,3.42,0,0,1,3.3-.82,10.88,10.88,0,0,1,3.71,1.44,5.37,5.37,0,0,1,2.26,2.68,2.32,2.32,0,0,1-1,2.88c-.27.28-1.23,1.1-2.88,2.47s-3.51,2.89-5.57,4.54-4.12,3.23-6.18,4.74-3.64,2.68-4.74,3.5l-12.36,9.07L565,184.81l-19.78,12.77q-5.78,3.72-11.75,7.22a90.54,90.54,0,0,1-12.16,6,32.4,32.4,0,0,1-9.68,2.68,15.9,15.9,0,0,1-9.69-1.85q-6.59-4.12-5.35-12.78a50,50,0,0,1,2.26-7.42c1-2.47,2-4.8,3.09-7l8.66-17.31q2.06-4.11,4.33-8.24a62.69,62.69,0,0,0,3.91-8.65A78.31,78.31,0,0,0,510,157q-3.92,3.49-8.45,8-5,4.95-9.48,9.89T483,185.22q-7.83,9.06-15.25,18.34a176.06,176.06,0,0,1-16.07,17.52,4.32,4.32,0,0,1-3.91,1.85,10.24,10.24,0,0,1-4.33-1.44,29,29,0,0,1-2.47-1.86,3,3,0,0,1-.83-3.09A148.75,148.75,0,0,1,448.75,192q5.36-11.75,11.12-23.7l23.5-45.75q11.94-22.26,24.93-42.66T537,38.49a52.78,52.78,0,0,1,8.45-8.24,17.82,17.82,0,0,1,11.33-3.71A8.38,8.38,0,0,1,562.91,29c1.65,1.65,1.79,3.17.41,4.54l-2.88,2.06a2.73,2.73,0,0,1-2.89,0h-.41l-1.23.82-2.07,1.65q-2.05,2.47-3.91,4.53a65.36,65.36,0,0,0-4.12,5.16q-2.28,3.09-5.36,7.21l-8,10.71q-7.41,9.9-13.19,19.38-10.31,16.07-19,32.56T483,151q-4.53,9.48-9.47,18.75T464,188.52q5.76-6.2,11.12-12.57t11.13-12.58a223.44,223.44,0,0,1,18.55-17.31,59.72,59.72,0,0,1,8.65-5.77,30.22,30.22,0,0,1,9.48-3.29,8.8,8.8,0,0,1,5.36,0,5.22,5.22,0,0,1,4.12,3.71,11.45,11.45,0,0,1,.41,5.35,30.08,30.08,0,0,1-1.23,5.36,43,43,0,0,1-2.27,6.6c-1,2.2-2,4.39-3.09,6.59q-4.54,8.25-8.86,16.49A112.81,112.81,0,0,0,510.16,198l-1.65,5.77q2.06.84,8.65-2.47t14.22-7.83q7.62-4.53,14.63-9.27T556.73,177q11.53-8.24,19-13.6t12.36-8.65q5-3.3,7.63-5.36T600.83,145.24Z"/></g></g></svg>
