<?xml version="1.0" encoding="iso-8859-1"?>
<!-- Generator: Adobe Illustrator 23.0.6, SVG Export Plug-In . SVG Version: 6.00 Build 0)  -->
<svg version="1.1" xmlns="http://www.w3.org/2000/svg" xmlns:xlink="http://www.w3.org/1999/xlink" x="0px" y="0px"
	 viewBox="0 0 292.507 396.712" style="enable-background:new 0 0 292.507 396.712;" xml:space="preserve">
<g fill="white" id="Layer_1">
	<g>
		<path style="display:none;fill:#FFFFFF;" d="M-109.403,25.17c59,0-197,308-197,237c4.661-12.815,9.322-25.629,13.982-38.444
			c-2.488,11.903-5.865,23.534-7.836,35.399c-1.957,11.783-2.501,23.8-3.664,35.715c0.235,0.001,0.47,0.002,0.705,0.004
			c3.745-16.344,7.491-32.689,11.236-49.033c0.432,0.099,0.863,0.198,1.295,0.297c-2.773,14.899-5.546,29.797-8.32,44.696
			c0.4,0.088,0.8,0.177,1.201,0.265c8.708-37.123,19.799-73.231,43.418-104.628c4.259,7.15,4.353,7.233,2.061,9.835
			c-17.812,20.224-28.639,43.906-34.603,69.967c-1.806,7.89-3.241,15.865-4.995,24.539c6.282-16.778,11.622-33.028,18.421-48.643
			c6.86-15.757,15.168-30.885,23.112-46.833c7.349,10.099,7.323,10.081,1.31,18.943c-13.917,20.511-25.162,42.32-31.795,66.314
			c-3.343,12.095-5.645,24.363-5.225,36.988c1.729-5.725,3.043-11.538,4.76-17.23c1.727-5.726,3.775-11.36,5.828-16.982
			c1.969-5.391,4.124-10.713,6.197-16.065c-7.253,23.127-9.991,46.814-10.693,70.87c6.643-40.697,19.124-79.012,44.558-112.472
			c4.772,6.473,5.292,11.557,0.281,18.372c-13.467,18.317-23.593,38.557-30.532,60.307c-4.571,14.328-7.28,28.948-7.594,44.069
			c4.196-13.531,8.357-26.949,12.519-40.367c0.294,0.1,0.589,0.2,0.883,0.3c-2.883,14.093-5.766,28.187-8.649,42.28
			c1.148-1.088,1.697-2.302,2.009-3.574c7.783-31.722,20.497-61.457,36.141-90.026c1.577-2.881,2.679-6.023,4.001-9.043l-0.15,0.159
			c0.744-0.049,1.487-0.098,2.229-0.144c0.363,1.44,0.424,3.056,1.146,4.282c3.339,5.672,1.393,10.084-2.014,15.196
			c-14.817,22.227-27.307,45.716-35.427,71.274c-2.791,8.784-4.605,17.878-6.866,26.831c16.011-33.81,31.098-67.772,46.196-101.729
			c0.199-0.447,0.462-1.085,0.822-1.187c0.456-0.129,1.038,0.217,1.574,0.316c0.08,0.015,0.203-0.2,0.398-0.405
			c-0.218-1.304-0.449-2.685-0.68-4.065c25.835,37.797,54.497,73.601,74.351,115.078c-11.187-37.909-31.855-70.364-57.417-100
			c-7.358-8.531-14.794-16.996-22.194-25.491c-0.139-1.245-0.277-2.491-0.514-4.613c38.301,30.056,68.044,66.407,92.926,107.049
			c0.018-0.952-0.206-1.716-0.557-2.417c-10.913-21.762-23.033-42.775-38.127-61.973c-13.631-17.338-29.574-32.089-49.46-41.802
			c-5.511-2.692-7.841-6.099-9.281-12.195c44.107,16.427,80.721,42.668,112.82,75.783c-0.202-1.263-0.722-2.095-1.307-2.878
			c-13.315-17.829-28.354-34.008-45.938-47.717c-11.757-9.166-24.512-16.611-38.879-20.827c-8.103-2.378-16.435-3.974-24.643-6.004
			c-1.35-0.334-3.292-0.746-3.77-1.712c-2.088-4.213-3.738-8.644-5.958-13.986c42.844,21.921,85.781,41.084,124.961,67.629
			c-0.815-1.723-2.515-2.473-3.764-3.687c-14.938-14.515-32.414-25.483-50.38-35.654c-20.042-11.347-41.158-20.544-63.289-26.792
			c-9.091-2.567-11.101-8.862-13.506-16.131c46.845,21.424,95.677,38.494,138.891,67.269c-0.685-0.985-1.436-1.857-2.272-2.636
			c-12.965-12.082-27.673-21.793-42.989-30.482c-27.958-15.861-57.991-26.725-89.028-34.674c-6.64-1.701-8.977-5.542-11.019-11.979
			c48.574,19.164,97.736,34.825,143.37,59.373c-7.934-6.39-16.022-12.517-24.675-17.703
			c-34.053-20.409-71.143-33.041-109.809-41.012c-8.594-1.772-13.544-5.46-15.845-14.786
			c52.685,18.738,104.756,37.257,156.827,55.777c-9.302-6.593-18.867-12.955-29.072-18.03
			c-39.384-19.585-81.48-30.536-124.562-38.193c-1.84-0.327-4.25-0.867-5.191-2.174c-2.457-3.414-4.245-7.31-6.3-11.014
			c0.264-0.377,0.528-0.753,0.792-1.13c54.765,17.74,109.53,35.48,163.869,53.083c-2.474-1.822-5.259-4.239-8.379-6.093
			c-5.696-3.385-11.459-6.71-17.424-9.583c-42.897-20.66-88.698-31.078-135.469-37.869c-4.634-0.673-6.595-2.845-8.109-8.128
			c17.714,1.74,34.834,2.706,51.719,5.237c30.255,4.535,59.388,13.363,87.1,26.376c4.292,2.015,11.336,1.757,11.937,9.266
			c0.228-1.048,0.456-2.095,0.654-3.007c9.272,1.274,6.139,10.025,9.923,14.893c0-3.232,0-6.465,0-9.78
			c1.309,0.259,2.085,0.412,2.273,0.449c-0.615-1.586-2.061-3.462-1.904-5.193c2.185-24.15,4.603-48.28,6.863-72.424
			c0.053-0.567-1.056-1.243-1.623-1.866c1.258,0.354,2.746,0.387,3.739,1.106c12.926,9.362,26,18.541,38.598,28.331
			c13.815,10.735,27.176,22.055,40.048,32.56c-0.029-0.041-0.624-0.945-1.282-1.802c-15.814-20.604-35.659-36.628-57.57-50.205
			c-9.022-5.59-18.423-10.569-27.652-15.825l0.171,0.175c-0.576-1.003-1.152-2.007-2.211-3.852
			c17.686,5.913,33.627,13.072,48.438,22.39c14.818,9.322,29.112,19.477,43.268,29.018c-17.48-16.912-36.082-33.302-58.973-43.528
			c-9.745-4.353-20.458-6.738-30.927-9.173c-3.99-0.928-6.488-2.318-8.44-6.283c36.298,0.729,69.542,10.81,101.431,26.513
			c-9.552-6.249-19.166-12.253-29.279-17.246c-22.611-11.165-46.242-16.785-71.568-11.204c-1.117,0.246-2.823,0.042-3.573-0.67
			c-2.481-2.354-4.649-5.037-7.566-8.296c18.875,2.57,36.729,4.646,54.455,7.514c17.547,2.838,34.964,6.475,52.193,9.715
			c-0.269-0.177-0.774-0.63-1.364-0.878c-3.37-1.421-6.716-2.913-10.149-4.163c-28.567-10.397-58.23-13.862-88.399-13.041
			c-7.165,0.195-11.261-2.645-15.22-8.701c39.854,3.763,79.33,4.759,117.995,13.722c-8.779-3.46-17.617-6.796-26.717-9.095
			c-28.891-7.299-58.305-8.101-87.852-5.897c-4.803,0.358-7.813-1.235-10.403-5.809c40.956,1.648,81.57,0.575,121.738,7.976
			c-4.853-1.98-9.758-3.825-14.798-5.16c-34.046-9.024-68.525-8.742-103.162-4.546c-6.563,0.795-7.763,0.254-11.271-5.739
			c42.38,0.004,84.758,0.004,126.518,0.004c-0.248-0.111-1.221-0.779-2.284-0.986c-10.269-1.998-20.476-4.665-30.846-5.721
			c-30.355-3.091-60.598-0.883-90.571,4.24c-7.024,1.2-9.561-2.821-12.978-7.613c44.033-0.849,88.065-1.698,132.099-2.546
			c-1.491-0.513-3.095-1.34-4.787-1.601c-10.509-1.624-20.991-3.83-31.569-4.526c-30.936-2.038-61.527,1.5-91.929,7.016
			c-3.345,0.607-7.203,2.851-8.448-3.103c41.314-13.944,83.591-16.356,126.612-10.354c-26.062-7.884-52.477-11.972-80.77-8.749
			C-114.262,26.876-111.833,26.023-109.403,25.17z M-90.358,129.126c0.726,1.637,1.327,3.344,2.196,4.902
			c9.875,17.691,19.92,35.288,29.651,53.057c6.745,12.317,13.072,24.864,20.066,38.224c0-1.886,0.17-2.829-0.028-3.687
			c-1.081-4.684-1.906-9.465-3.448-13.999c-9.961-29.267-27.092-54.235-46.934-77.54c-0.365-0.429-1.061-0.577-1.603-0.857
			c1.003,0.167,2.325-0.021,2.962,0.553c14.292,12.861,27.176,27.032,37.757,43.087c7.202,10.928,13.562,22.411,20.298,33.646
			c-11.883-36.235-30.734-67.001-66.911-85.262c-6.309,32.796,5.178,61.357,18.555,89.552c-4.329-15.265-8.659-30.53-12.988-45.795
			c0.233-0.027,0.466-0.055,0.698-0.082c8.158,13.143,16.317,26.286,24.475,39.429c0.406-0.243,0.813-0.486,1.219-0.729
			c-0.852-1.521-1.679-3.057-2.558-4.562c-10.603-18.163-19.733-36.98-24.72-57.529c-0.883-3.639-0.591-7.575-0.668-11.377
			C-92.346,129.827-91.049,129.47-90.358,129.126z M-211.405,280.169c-0.189,1.797-0.8,3.667-0.503,5.379
			c5.841,33.729,11.882,67.422,17.659,101.162c1.998,11.671,3.391,23.445,5.06,35.172c3.234-10.704,3.946-21.578,3.431-32.572
			c-1.278-27.261-7.038-53.655-15.452-79.527c-3.018-9.281-6.154-18.523-9.236-27.783c0.519,0.602,1.163,1.135,1.54,1.816
			c18.891,34.121,31.249,70.436,36.579,109.104c0.647,4.697,1.255,9.4,1.881,14.1c2.077-51.575-8.705-99.739-45.473-136.926
			c-23.161,40.178-19.077,83.421-14.119,126.751c-1.022-23.835-0.151-47.576,3.381-70.214c5.021,21.474,10.207,43.651,15.392,65.828
			c0.476-0.107,0.951-0.214,1.427-0.32c-0.044-0.472-0.033-0.956-0.138-1.413c-6.664-28.808-10.967-57.909-9.219-87.55
			c0.421-7.145,2.946-14.182,4.747-21.206C-214.243,281.163-212.458,280.76-211.405,280.169z"/>
		<path d="M203.868,88.974c0.567,0.625,1.676,1.301,1.622,1.868c-2.26,24.144-4.678,48.273-6.863,72.424
			c-0.157,1.731,1.29,3.608,1.904,5.193c-0.188-0.037-0.964-0.19-2.273-0.449c0,3.316,0,6.548,0,9.78
			c-3.785-4.868-0.652-13.619-9.923-14.893c-0.198,0.911-0.426,1.959-0.654,3.007c-0.6-7.508-7.645-7.25-11.937-9.266
			c-27.712-13.013-56.845-21.841-87.1-26.376c-16.885-2.531-34.005-3.497-51.719-5.237c1.514,5.283,3.476,7.455,8.109,8.128
			c46.771,6.791,92.572,17.209,135.469,37.869c5.965,2.873,11.727,6.198,17.424,9.583c3.12,1.854,5.905,4.271,8.379,6.093
			c-54.339-17.602-109.104-35.342-163.869-53.083c-0.264,0.377-0.528,0.753-0.792,1.13c2.055,3.704,3.843,7.599,6.3,11.014
			c0.941,1.307,3.351,1.847,5.191,2.174c43.082,7.657,85.178,18.608,124.562,38.193c10.205,5.075,19.769,11.437,29.072,18.03
			c-52.071-18.519-104.142-37.039-156.827-55.777c2.302,9.326,7.252,13.014,15.845,14.786
			c38.666,7.971,75.755,20.603,109.809,41.012c8.652,5.186,16.741,11.312,24.675,17.703c-45.634-24.548-94.797-40.208-143.37-59.373
			c2.042,6.436,4.379,10.278,11.019,11.979c31.036,7.949,61.069,18.813,89.028,34.674c15.317,8.689,30.024,18.4,42.989,30.482
			c0.836,0.779,1.587,1.651,2.272,2.636c-43.214-28.775-92.046-45.846-138.891-67.269c2.405,7.269,4.415,13.564,13.506,16.131
			c22.131,6.248,43.248,15.446,63.289,26.792c17.966,10.171,35.442,21.14,50.38,35.654c1.249,1.214,2.949,1.964,3.764,3.687
			c-39.18-26.546-82.117-45.709-124.961-67.629c2.221,5.342,3.87,9.773,5.958,13.986c0.479,0.966,2.42,1.378,3.77,1.712
			c8.208,2.03,16.54,3.627,24.643,6.004c14.368,4.216,27.122,11.661,38.879,20.827c17.585,13.709,32.624,29.888,45.938,47.717
			c0.585,0.783,1.105,1.615,1.307,2.878c-32.099-33.115-68.713-59.356-112.82-75.783c1.44,6.096,3.77,9.503,9.281,12.195
			c19.886,9.713,35.828,24.464,49.46,41.802c15.094,19.198,27.213,40.212,38.127,61.973c0.351,0.7,0.575,1.465,0.557,2.417
			c-24.883-40.642-54.625-76.993-92.926-107.049c0.236,2.122,0.375,3.368,0.514,4.613l0.113-0.104
			c-0.744,0.049-1.487,0.098-2.23,0.149c1.425-3.991-0.856-6.617-3.254-9.786c-4.627,10.348-8.999,20.125-13.349,29.854
			c5.633-6.802,11.192-13.516,16.752-20.23c-1.322,3.021-2.423,6.162-4.001,9.043c-15.644,28.57-28.358,58.304-36.141,90.026
			c-0.312,1.272-0.861,2.486-2.009,3.574c2.883-14.093,5.766-28.187,8.649-42.28c-0.294-0.1-0.589-0.2-0.883-0.3
			c-4.161,13.418-8.323,26.837-12.519,40.367c0.314-15.121,3.023-29.741,7.594-44.069c6.938-21.75,17.064-41.99,30.532-60.307
			c5.011-6.816,4.491-11.9-0.281-18.372c-25.435,33.46-37.915,71.775-44.558,112.472c0.702-24.055,3.44-47.742,10.693-70.87
			c-2.073,5.352-4.228,10.675-6.197,16.065c-2.053,5.621-4.101,11.255-5.828,16.982c-1.717,5.692-3.031,11.505-4.76,17.23
			c-0.42-12.625,1.881-24.893,5.225-36.988c6.633-23.994,17.878-45.803,31.795-66.314c6.013-8.862,6.039-8.845-1.31-18.943
			c-7.944,15.948-16.251,31.075-23.112,46.833c-6.798,15.615-12.139,31.864-18.421,48.643c1.754-8.674,3.189-16.649,4.995-24.539
			c5.964-26.06,16.791-49.743,34.603-69.967c2.292-2.602,2.198-2.685-2.061-9.835c-23.619,31.396-34.71,67.505-43.418,104.628
			c-0.4-0.088-0.8-0.177-1.201-0.265c2.773-14.899,5.546-29.797,8.32-44.696c-0.432-0.099-0.863-0.198-1.295-0.297
			c-3.745,16.344-7.491,32.689-11.236,49.033c-0.235-0.001-0.47-0.002-0.705-0.004c1.163-11.914,1.707-23.932,3.664-35.714
			c1.971-11.865,5.348-23.496,7.836-35.399C9.321,211.371,4.661,224.185,0,237c0-5,0-10,0-15c0.383-1.079,0.853-2.135,1.135-3.239
			c4.326-16.966,9.938-33.49,19.03-48.514c6.169-10.194,13.292-19.811,20.288-30.127c-1.307-2.212-2.977-5.038-4.837-8.187
			c-0.93,1.422-1.775,2.433-2.318,3.586c-10.455,22.211-20.872,44.44-31.309,66.66C1.378,203.477,0.665,204.727,0,206c0-6,0-12,0-18
			c0.65-1.298,1.421-2.549,1.931-3.899c6.59-17.43,15.681-33.422,27.45-47.88c5.339-6.559,5.349-6.553,0.415-13.608
			c-0.083-0.119-0.236-0.19-0.873-0.681c-4.999,8.489-10.073,16.853-14.892,25.361C9.221,155.786,4.666,164.425,0,173c0-5,0-10,0-15
			c8.992-12.919,17.984-25.838,27.402-39.37c-1.146-1.756-2.985-4.574-5.168-7.919c-1.462,2.477-2.602,4.292-3.629,6.17
			C12.389,128.246,6.199,139.625,0,151c0-5,0-10,0-15c6.903-9.004,13.806-18.008,20.96-27.338c-2.632-3.764-5.416-7.745-8.5-12.156
			C8.09,105.095,4.045,113.048,0,121c0-3.333,0-6.667,0-10c2.445-3.253,4.963-6.454,7.319-9.77c4.59-6.458,4.552-6.485-1.091-12.772
			C4.134,90.994,2.067,93.497,0,96c0-9,0-18,0-27c7.645-6.365,14.971-13.18,23.063-18.916c4.38-3.104,5.039-5.779,2.568-10.546
			C16.965,44.089,8.483,48.545,0,53c0-2.333,0-4.667,0-7c6.282-4.607,12.246-9.763,18.949-13.642
			c5.12-2.963,6.523-6.298,4.574-12.001C15.628,25.271,7.814,30.135,0,35c0-2.667,0-5.333,0-8
			c6.326-4.461,12.386-9.383,19.066-13.23c4.951-2.851,5.592-6.516,4.902-11.765c-1.763,1.27-3.189,2.315-4.633,3.336
			C12.893,9.898,6.446,14.448,0,19c0-2.333,0-4.667,0-7C4.667,8,9.333,4,14,0c5.667,0,11.333,0,17,0c0,1.886,0,3.772,0,5.658
			c0.444,0.264,0.889,0.528,1.333,0.792C34.222,4.301,36.111,2.15,38,0c7,0,14,0,21,0c-0.374,3.957-0.748,7.914-1.122,11.871
			c0.604,0.227,1.208,0.453,1.812,0.68c0.766-1.233,2.045-2.406,2.195-3.71C62.222,5.928,61.996,2.951,62,0c3.667,0,7.333,0,11,0
			c-0.227,2.22-0.453,4.44-0.695,6.809C76.382,5.531,76.382,5.531,77,0c8.667,0,17.333,0,26,0c-1.311,3.92-2.621,7.84-3.932,11.761
			c0.479,0.165,0.958,0.329,1.437,0.494c1.501-2.663,3.116-5.27,4.453-8.013C105.583,2.962,105.67,1.422,106,0c2.333,0,4.667,0,7,0
			c2.915,1.916,5.797,5.259,8.756,5.329C124.46,5.393,127.249,1.916,130,0c3.667,0,7.333,0,11,0
			c-6.047,2.574-12.094,5.148-18.572,7.906c2.6,2.083,4.56,3.873,6.75,5.313c1.061,0.698,2.771,1.358,3.816,0.988
			C146.036,9.583,159.009,4.767,172,0c8.333,0,16.667,0,25,0c-2.43,0.853-4.859,1.706-8.386,2.944
			c28.293-3.222,54.708,0.865,80.77,8.749c-43.021-6.002-85.298-3.59-126.612,10.354c1.245,5.954,5.104,3.71,8.448,3.103
			c30.402-5.516,60.993-9.054,91.929-7.016c10.578,0.697,21.06,2.902,31.569,4.526c1.692,0.261,3.296,1.088,4.787,1.601
			c-44.034,0.849-88.066,1.698-132.099,2.546c3.417,4.792,5.954,8.813,12.978,7.613c29.973-5.122,60.216-7.331,90.571-4.24
			c10.37,1.056,20.578,3.722,30.846,5.721c1.063,0.207,2.036,0.875,2.284,0.986c-41.76,0-84.138,0-126.518-0.004
			c3.509,5.993,4.709,6.534,11.271,5.739c34.637-4.196,69.116-4.478,103.162,4.545c5.04,1.336,9.945,3.18,14.798,5.16
			c-40.168-7.401-80.782-6.328-121.738-7.976c2.59,4.574,5.6,6.167,10.403,5.809c29.546-2.204,58.96-1.402,87.852,5.897
			c9.1,2.299,17.938,5.635,26.717,9.095c-38.666-8.963-78.142-9.959-117.995-13.722c3.958,6.056,8.054,8.896,15.22,8.701
			c30.169-0.821,59.831,2.644,88.399,13.041c3.434,1.25,6.78,2.742,10.149,4.163c0.59,0.249,1.094,0.701,1.364,0.878
			c-17.229-3.24-34.646-6.877-52.193-9.715c-17.726-2.867-35.58-4.944-54.455-7.514c2.917,3.259,5.085,5.943,7.566,8.296
			c0.751,0.712,2.456,0.917,3.573,0.67c25.326-5.581,48.957,0.039,71.568,11.204c10.113,4.993,19.727,10.997,29.279,17.246
			c-31.89-15.703-65.133-25.785-101.431-26.513c1.952,3.965,4.45,5.355,8.44,6.283c10.469,2.435,21.182,4.82,30.927,9.173
			c22.891,10.226,41.493,26.616,58.973,43.528c-14.156-9.542-28.45-19.696-43.268-29.018c-14.811-9.318-30.751-16.477-48.438-22.39
			c1.059,1.846,1.635,2.849,2.21,3.853c-0.948,0.537-2.618,0.95-2.735,1.63c-1.629,9.431-3.045,18.898-4.544,28.555
			c2.227,0.703,3.819,1.206,5.545,1.751c2.056-9.215,3.96-17.749,5.864-26.284L203.868,88.974z M193.218,136.557
			c0.84-0.815,2.28-1.537,2.423-2.459c0.903-5.855,1.52-11.753,2.26-17.876c-1.688-0.374-3.189-0.706-5.349-1.185
			c-0.325,6.599-0.703,12.683-0.842,18.772c-0.021,0.926,1.072,1.877,1.681,2.838c-0.664,0.952-1.906,1.907-1.901,2.855
			c0.039,6.806,0.268,13.614,0.61,20.413c0.051,1.007,1.008,1.968,1.547,2.951c0.463-0.118,0.926-0.235,1.388-0.353
			c0-7.562,0.073-15.126-0.081-22.685C194.931,138.727,193.824,137.647,193.218,136.557z M115.759,101.961
			c-15.825-0.833-31.001-2.814-46.306-2.809c-16.048,0.005-32.097,0.001-49.454,0.001c2.495,3.964,4.323,6.32,5.555,8.955
			c1.824,3.901,4.439,4.502,8.674,4.44c19.769-0.289,39.55-0.136,59.319,0.24c7.855,0.149,15.691,1.283,23.917,2.002
			C116.862,110.26,116.341,106.338,115.759,101.961z M11.556,87.038c1.855,2.678,3.281,4.152,4.019,5.914
			c1.895,4.523,4.899,4.449,9.139,3.511c8.751-1.934,17.632-3.365,26.516-4.587c6.877-0.946,13.841-1.258,20.804-1.856
			c-2.102-10.674-3.398-11.599-12.6-9.054c0.097,1.68,0.198,3.433,0.299,5.187c-0.187,0.053-0.374,0.106-0.561,0.158
			c-0.819-1.76-1.639-3.519-2.799-6.01C41.918,82.474,27.344,84.665,11.556,87.038z M106.495,121.656
			c22.155,6.066,43.025,14.774,63.325,26.292c-1.195-5.533-2.023-10.577-3.506-15.421c-0.391-1.279-2.77-2.669-4.291-2.735
			c-3.36-0.147-6.566-0.925-10.135-1.494c0.261,2.222,0.512,4.362,0.763,6.503c-1.21-1.76-1.761-3.66-2.525-5.472
			c-1.475-3.502-6.144-3.338-7.093-0.974c-1.743-0.911-3.325-1.895-5.03-2.571c-1.044-0.413-2.275-0.354-3.423-0.503
			C125.219,124.072,115.857,122.864,106.495,121.656z M5.811,79.06c9.169-4.662,17.965-9.134,26.971-13.713
			c-1.055-3.378-2.021-6.47-3.21-10.278c-9.903,5.701-19.307,11.115-29.126,16.768C2.432,74.512,3.978,76.593,5.811,79.06z
			 M63.289,183.114c-7.337,16.386-14.282,31.896-21.227,47.407c7.127-12.844,16.078-23.959,28.331-32.554
			C68.067,193.102,65.895,188.561,63.289,183.114z M18.256,188.27c9.697-12.242,19.11-24.125,28.883-36.462
			c-1.252-2.199-3.028-5.317-5.456-9.581C33.556,158.2,25.949,173.151,18.256,188.27z M166.87,83.681
			c1.778-7.404,3.319-14.203,5.056-20.952c1.816-7.058,1.743-7.391-5.738-12.033c-1.667,10.502-3.29,20.726-4.933,31.076
			C163.475,82.527,165.022,83.053,166.87,83.681z M29.498,114.129c2.212,3.647,4.057,6.689,5.51,9.084
			c12.775-1.663,24.899-3.241,37.644-4.9C58.165,116.908,44.284,115.562,29.498,114.129z M156.761,80.529
			c1.107-5.063,1.938-9.604,3.117-14.053c1.189-4.485,2.627-8.911,4.131-13.303c1.69-4.934,1.775-4.905-3.181-7.724
			C155.673,57.968,153.016,77.627,156.761,80.529z M184.169,68.601c-1.697,6.781-3.289,13.14-4.902,19.585
			c2.715,1.157,4.8,2.045,7.301,3.111c0.909-3.42,1.323-6.764,2.672-9.673C191.938,75.806,189.909,72.001,184.169,68.601z
			 M182.436,67.452c-2.688-3.027-5.151-5.802-8.063-9.081c-0.77,9.493-1.494,18.424-2.219,27.354
			c0.392,0.032,0.784,0.065,1.176,0.097C176.463,79.503,179.595,73.183,182.436,67.452z M36.101,75.636
			c0.153-0.453,0.307-0.907,0.46-1.36c-1.374-0.595-2.971-1.978-4.085-1.661c-8.393,2.387-16.691,5.109-25.501,7.878
			c1.345,1.894,2.37,3.337,3.427,4.824C19.145,82.023,27.623,78.83,36.101,75.636z M179.08,90.117
			c-0.649,4.563-1.094,8.999-1.948,13.355c-0.968,4.942,1.324,6.542,6.19,6.489c0.991-5.983,1.973-11.907,2.98-17.986
			C183.705,91.306,181.633,90.773,179.08,90.117z M142.903,72.821c3.367-9.084,7.164-19.585,11.201-29.993
			c0.783-2.019,1.961-4.239-0.748-4.684c-1.799-0.295-5.494,1.317-5.711,2.542C145.657,51.9,144.247,63.216,142.903,72.821z
			 M143.918,40.026c-3.207-0.414-5.359,0.711-5.758,4.548c-0.907,8.723-1.973,17.429-2.869,26.152
			c-0.143,1.393,0.262,2.842,0.413,4.265c0.371-0.018,0.742-0.036,1.113-0.054C139.176,63.337,141.536,51.735,143.918,40.026z
			 M128.172,73.673c0.402-0.399,0.804-0.798,1.206-1.198c1.508-10.002,3.017-20.003,4.525-30.005
			c-0.373-0.243-0.746-0.487-1.119-0.73c-1.237,1.402-3.294,2.66-3.571,4.232c-1.38,7.824-2.417,15.717-3.24,23.621
			C125.842,70.863,127.397,72.309,128.172,73.673z M108.363,3.015c-1.645,6.947-3.238,13.674-4.827,20.387
			c5.161,1.246,7.069-0.609,7.628-4.664c0.313-2.269,0.938-4.56,1.829-6.67C114.788,7.816,114.212,4.728,108.363,3.015z
			 M124.757,13.947c-2.895-2.031-5.888-4.13-9.434-6.617c-0.638,5.735-1.173,10.546-1.71,15.374
			C122.061,23.314,122.061,23.314,124.757,13.947z M42.487,49.827c-10.393,3.13-11.394,5.336-6.725,14.338
			c3.195-1.51,6.395-3.023,9.71-4.59C44.399,56.07,43.488,53.095,42.487,49.827z M124.256,116.036
			c3.162,0.433,6.127,0.839,9.285,1.271c-0.382-3.08-0.602-5.389-0.963-7.676c-1.057-6.682-1.08-6.679-8.321-6.291
			C124.256,107.406,124.256,111.481,124.256,116.036z M114.985,46.549c-2.252,1.761-4.583,2.653-4.797,3.907
			c-1.085,6.354-1.621,12.802-2.386,19.545c2.015,0.234,3.562,0.414,5.371,0.624C113.763,62.784,114.32,55.387,114.985,46.549z
			 M184.45,157.017c-0.84-7.617-1.732-13.699-2.101-19.812c-0.221-3.666-1.976-4.33-6.134-4.036
			C179.657,140.84,174.927,150.342,184.45,157.017z M88.914,25.024c0.459,0.34,0.919,0.679,1.378,1.019
			c1.153-1.046,3.039-1.919,3.333-3.167c1.429-6.054,2.43-12.209,3.583-18.328c-2.902,1.259-6.249,2.94-6.868,5.329
			C89.084,14.724,89.303,19.953,88.914,25.024z M131.99,16.868c3.577,1.448,6.867,4.079,8.718,3.299
			c7.305-3.079,14.158-7.228,22.441-11.655c-10.304,2.43-19.277,4.536-28.241,6.684C134.321,15.336,133.813,15.806,131.99,16.868z
			 M80.543,79.302c0.522,4.009,0.96,7.378,1.416,10.882c3.379,0.196,6.227,0.362,9.685,0.563c-1.159-4.478-2.084-8.05-2.963-11.445
			C85.84,79.302,83.565,79.302,80.543,79.302z M114.462,93.211c-0.261-4.623-0.498-8.815-0.748-13.231
			c-2.497-0.143-4.566-0.261-6.805-0.389c-0.32,2.535-0.663,4.501-0.79,6.48c-0.124,1.926-0.027,3.865-0.027,5.822
			C108.918,92.338,111.362,92.723,114.462,93.211z M183.014,112.355c-2.448-0.26-4.162-0.443-5.85-0.622
			c-1.998,14.22-1.221,17.312,4.692,18.854C182.232,124.671,182.606,118.786,183.014,112.355z M161.039,85.991
			c-0.41,5.995-0.792,11.573-1.19,17.389c1.867,0.472,3.326,0.841,4.992,1.262c0.559-6.011,1.076-11.582,1.616-17.395
			C164.599,86.816,163.043,86.456,161.039,85.991z M51.973,4.432c-8.643,3.402-8.722,3.545-7.545,13.317
			C51.82,16.406,52.057,16,51.973,4.432z M130.685,96.226c-0.346-5.44-0.637-10.012-0.95-14.925c-1.775,0-3.278,0-4.975,0
			c-0.263,4.628-0.506,8.91-0.761,13.388C126.242,95.205,128.132,95.639,130.685,96.226z M169.231,130.747
			c2.3,7.778-2.555,16.671,7.436,21.007C175.386,139.667,173.321,132.917,169.231,130.747z M160.128,107.915
			c0,5.69,0,10.637,0,15.768c1.699,0.47,3.231,0.893,4.872,1.347c0-5.477,0-10.578,0-15.847
			C163.344,108.753,161.943,108.388,160.128,107.915z M86.634,68.683c-0.638-4.191-1.227-8.055-1.816-11.921
			c-6.544,1.048-7.43,3.405-4.75,11.921C82.15,68.683,84.231,68.683,86.634,68.683z M78.89,26.401
			c0.357,0.443,0.714,0.886,1.071,1.329c1.302-0.894,3.52-1.601,3.747-2.714c0.926-4.55,1.243-9.224,1.832-14.256
			C76.449,13.726,80.244,21.039,78.89,26.401z M72.691,79.558c0.543,3.916,0.99,7.136,1.423,10.262c2.536,0,4.584,0,6.872,0
			c-0.86-3.735-1.627-7.069-2.448-10.637C76.61,79.306,75.014,79.409,72.691,79.558z M95.98,79.044
			c-2.02,0.112-3.43,0.19-5.269,0.292c0.414,3.902,0.791,7.444,1.205,11.339c2.163,0.132,4.059,0.247,6.523,0.397
			C97.571,86.829,96.822,83.163,95.98,79.044z M189.79,99.365c0.236,0.032,0.472,0.065,0.708,0.097
			c1.519-4.655,2.624-9.504,4.679-13.91c1.906-4.085,0.625-6.337-3.303-8.82C191.148,84.618,190.469,91.991,189.79,99.365z
			 M120.837,27.278c-8.654-0.192-9.359,0.81-8.575,10.641C120.393,38.566,117.373,31.025,120.837,27.278z M30.867,24.815
			c7.32-3.009,7.655-3.776,5.415-11.814C29.851,15.856,29.851,15.856,30.867,24.815z M130.6,34.757
			c5.86,0.394,8.625-2.033,8.944-7.315c0.058-0.961-1.543-2.903-2.373-2.9C129.834,24.569,133.63,31.338,130.6,34.757z
			 M94.319,70.154c-0.703-6.425-1.216-11.109-1.738-15.878c-3.651,1.211-5.115,6.708-3.239,12.621
			C89.708,68.051,91.89,68.629,94.319,70.154z M139.921,118.942c0.159-10.905-0.906-13.963-4.835-14.316c0,4.285,0,8.555,0,12.935
			C136.784,118.046,138.184,118.446,139.921,118.942z M48.455,67.946c-11.076,2.047-11.983,2.671-10.601,7.404
			c3.936-0.943,7.89-1.891,12.156-2.914C49.457,70.84,48.994,69.503,48.455,67.946z M38.547,33.803
			c-8.242,3.043-8.242,3.043-6.117,9.972C40.645,40.243,40.645,40.243,38.547,33.803z M123.734,45.48
			c-0.716-0.115-1.432-0.231-2.148-0.346c-2.18,8.494-2.568,17.273-2.839,26.07c0.447,0.074,0.895,0.147,1.342,0.221
			C121.305,62.777,122.519,54.129,123.734,45.48z M144.075,104.944c-0.574,0.169-1.147,0.337-1.721,0.506
			c-0.787,14.261-0.206,15.845,5.323,13.945C146.478,114.584,145.277,109.764,144.075,104.944z M62.123,41.377
			c-6.998,3.095-2.563,8.374-4.057,12.505C64.315,52.552,64.315,52.552,62.123,41.377z M122.437,35.865
			c4.742-0.009,7.513-4.468,7.163-10.745c-1.768,0.342-3.518,0.681-5.44,1.053C123.598,29.336,123.055,32.389,122.437,35.865z
			 M109.139,29.192c-6.988,0.296-8.054,2.425-6.572,11.05C109.635,39.386,106.137,32.929,109.139,29.192z M155.036,107.081
			c-2.593,9.841-1.07,15.489,3.371,15.043C157.495,117.039,158.183,111.543,155.036,107.081z M118.482,101.011
			c-1.012,11.527-0.268,13.767,4.819,14.712C121.53,111.103,124.084,105.526,118.482,101.011z M66.355,69.818
			c-0.186-1.543-0.246-2.696-0.483-3.812c-0.229-1.078-0.641-2.118-0.959-3.131c-6.849,1.041-6.973,1.229-5.336,7.959
			C61.658,70.522,63.755,70.207,66.355,69.818z M83.163,35.636c-4.844-0.189-6.07,3.538-3.634,11.049
			C84.214,45.791,84.037,47.046,83.163,35.636z M155.568,101.763c0-5.561,0-11.122,0-16.683
			C152.171,90.637,152.687,99.943,155.568,101.763z M187.749,136.541c-1.751,18.165-1.293,21.502,2.739,22.955
			C189.571,151.812,188.66,144.177,187.749,136.541z M45.773,37.046c6.752-0.393,4.953-4.916,4.979-8.652
			C44.286,30.246,44.286,30.246,45.773,37.046z M50.698,46.081c-4.414,1.813-4.663,4.314-1.424,11.688
			C52.638,56.087,52.638,56.087,50.698,46.081z M137.166,82.037c-0.536,0.034-1.072,0.068-1.608,0.103
			c-2.34,8.094-1.528,14.163,2.393,15.078C137.685,92.073,137.426,87.055,137.166,82.037z M76.632,68.823
			c-0.553-3.249-1.064-6.244-1.751-10.279c-1.78,1.584-3.513,2.394-3.589,3.337c-0.19,2.38,0.366,4.82,0.641,7.405
			C73.77,69.105,75.058,68.978,76.632,68.823z M102.609,67.778c0.523-5.548,1.045-11.095,1.568-16.643
			c-0.667-0.055-1.334-0.11-2.002-0.165C100.18,56.399,101.622,62.108,102.609,67.778z M126.303,15.227
			c-0.594,2.809-1.026,4.851-1.676,7.921c3.243-0.574,5.688-1.007,8.133-1.44c-0.02-0.495-0.04-0.99-0.06-1.485
			C130.792,18.733,128.884,17.243,126.303,15.227z M92.125,32.873c-4.109,0.642-4.538,2.091-3.18,10.723
			C92.692,42.479,92.757,42.263,92.125,32.873z M121.078,94.663c-0.353-5.459-0.642-9.939-0.932-14.418
			c-0.437,0.043-0.874,0.085-1.311,0.128C117.026,86.489,117.521,92.072,121.078,94.663z M139.736,34.989
			c3.07-0.255,5.212-0.432,7.354-0.61c0.151-0.453,0.302-0.905,0.454-1.358c-1.918-1.818-3.836-3.636-6.233-5.909
			C140.735,29.992,140.32,32.067,139.736,34.989z M57.812,33.167c6.54-2.566,3.198-6.66,3.905-10.335
			C55.861,24.939,59.022,29.11,57.812,33.167z M74.169,16.791c-3.45,2.338-4.156,7.63-1.181,12.165
			C73.367,25.05,73.746,21.144,74.169,16.791z M150.524,106.646c-0.523,0.027-1.047,0.054-1.57,0.081
			c0.644,4.92,1.288,9.841,1.933,14.761c0.582-0.091,1.164-0.182,1.747-0.273C151.93,116.359,151.227,111.503,150.524,106.646z
			 M71.383,38.158c0,3.682,0,7.363,0,11.007C74.286,47.963,74.575,45.404,71.383,38.158z M100.709,79.293
			c-0.587,0.08-1.174,0.16-1.761,0.24c0.43,3.931,0.86,7.861,1.29,11.792c0.685-0.094,1.371-0.189,2.056-0.283
			C101.766,87.125,101.238,83.209,100.709,79.293z M42.972,163.175c0.204,0.219,0.408,0.438,0.612,0.656
			c2.325-1.763,4.651-3.525,7.127-5.402c-0.769-1.149-1.381-2.064-2.187-3.269C46.519,158.056,44.746,160.615,42.972,163.175z"/>
		<path style="display:none;fill:#FFFFFF;" d="M-306.403,231.17c0.665-1.273,1.378-2.523,1.988-3.821
			c10.437-22.22,20.854-44.449,31.309-66.66c0.543-1.153,1.388-2.163,2.318-3.586c1.86,3.148,3.53,5.975,4.837,8.187
			c-6.995,10.316-14.119,19.933-20.288,30.127c-9.091,15.024-14.704,31.548-19.03,48.514c-0.282,1.104-0.752,2.161-1.135,3.239
			C-306.403,241.837-306.403,236.504-306.403,231.17z"/>
		<path style="display:none;fill:#FFFFFF;" d="M-306.403,198.17c4.666-8.575,9.221-17.214,14.031-25.707
			c4.819-8.508,9.893-16.872,14.892-25.361c0.637,0.492,0.79,0.562,0.873,0.681c4.934,7.055,4.925,7.048-0.415,13.608
			c-11.769,14.458-20.86,30.449-27.45,47.88c-0.51,1.35-1.281,2.602-1.931,3.899C-306.403,208.17-306.403,203.17-306.403,198.17z"/>
		<path style="display:none;fill:#FFFFFF;" d="M-306.403,146.17c4.045-7.952,8.09-15.905,12.46-24.494
			c3.084,4.411,5.868,8.392,8.5,12.156c-7.153,9.33-14.056,18.334-20.96,27.338C-306.403,156.17-306.403,151.17-306.403,146.17z"/>
		<path style="display:none;fill:#FFFFFF;" d="M-306.403,78.17c8.483-4.455,16.965-8.911,25.63-13.462
			c2.472,4.768,1.812,7.442-2.568,10.546c-8.091,5.735-15.418,12.55-23.063,18.916C-306.403,88.837-306.403,83.504-306.403,78.17z"
			/>
		<path style="display:none;fill:#FFFFFF;" d="M-306.403,60.17c7.814-4.865,15.628-9.729,23.523-14.644
			c1.949,5.703,0.546,9.038-4.574,12.001c-6.703,3.879-12.667,9.036-18.949,13.642C-306.403,67.504-306.403,63.837-306.403,60.17z"
			/>
		<path style="display:none;fill:#FFFFFF;" d="M-306.403,44.17c6.446-4.552,12.893-9.102,19.335-13.658
			c1.443-1.021,2.87-2.066,4.633-3.336c0.691,5.25,0.049,8.914-4.902,11.765c-6.68,3.846-12.74,8.769-19.066,13.23
			C-306.403,49.504-306.403,46.837-306.403,44.17z"/>
		<path d="M94.998,254.999c-1.053,0.591-2.837,0.994-3.045,1.801c-1.801,7.024-4.326,14.061-4.747,21.206
			c-1.748,29.641,2.555,58.742,9.219,87.55c0.106,0.457,0.095,0.941,0.138,1.413c-0.476,0.107-0.951,0.214-1.427,0.32
			c-5.186-22.177-10.371-44.355-15.392-65.828c-3.532,22.638-4.403,46.38-3.381,70.214c-4.959-43.33-9.043-86.573,14.119-126.751
			c36.768,37.187,47.55,85.351,45.473,136.926c-0.626-4.7-1.234-9.403-1.881-14.1c-5.329-38.669-17.688-74.984-36.579-109.104
			c-0.377-0.681-1.02-1.214-1.54-1.816C95.636,256.22,95.317,255.609,94.998,254.999z"/>
		<path d="M81.983,222.935c7.4,8.495,14.835,16.96,22.194,25.491c25.562,29.636,46.231,62.091,57.417,100
			c-19.854-41.477-48.517-77.282-74.351-115.078c0.231,1.38,0.462,2.76,0.68,4.065c-0.194,0.205-0.317,0.42-0.398,0.405
			c-0.536-0.099-1.118-0.445-1.574-0.316c-0.36,0.102-0.623,0.74-0.822,1.187c-15.098,33.957-30.185,67.918-46.196,101.729
			c2.26-8.953,4.075-18.047,6.866-26.831c8.121-25.557,20.611-49.047,35.427-71.274c3.408-5.112,5.353-9.524,2.014-15.196
			c-0.722-1.227-0.782-2.843-1.146-4.282C82.095,222.831,81.983,222.935,81.983,222.935z"/>
		<path d="M216.045,103.955c-0.691,0.345-1.988,0.702-1.981,1.033c0.077,3.802-0.215,7.738,0.668,11.377
			c4.986,20.549,14.117,39.366,24.72,57.529c0.879,1.505,1.707,3.041,2.558,4.562c-0.406,0.243-0.813,0.486-1.219,0.729
			c-8.158-13.143-16.317-26.286-24.475-39.429c-0.233,0.027-0.466,0.055-0.698,0.082c4.329,15.265,8.659,30.53,12.988,45.795
			c-13.377-28.195-24.864-56.755-18.555-89.552c36.177,18.261,55.027,49.027,66.911,85.262
			c-6.736-11.235-13.096-22.718-20.298-33.646c-10.581-16.056-23.465-30.226-37.757-43.087c-0.637-0.573-1.959-0.386-2.962-0.553
			C215.944,104.056,216.045,103.955,216.045,103.955z"/>
		<path d="M94.998,254.999c0.319,0.61,0.638,1.221,0.958,1.831c3.082,9.26,6.217,18.503,9.236,27.783
			c8.415,25.872,14.174,52.266,15.452,79.527c0.516,10.993-0.197,21.868-3.431,32.572c-1.669-11.727-3.062-23.502-5.06-35.172
			c-5.776-33.739-11.818-67.433-17.659-101.162C94.198,258.666,94.809,256.796,94.998,254.999z"/>
		<path d="M215.944,104.056c0.542,0.279,1.237,0.427,1.603,0.857c19.842,23.305,36.973,48.273,46.934,77.54
			c1.543,4.533,2.368,9.315,3.448,13.999c0.198,0.858,0.028,1.801,0.028,3.687c-6.994-13.361-13.32-25.907-20.066-38.224
			c-9.731-17.769-19.776-35.366-29.651-53.057c-0.869-1.557-1.47-3.264-2.196-4.902
			C216.045,103.955,215.944,104.056,215.944,104.056z"/>
		<path d="M199.749,83.141c9.229,5.257,18.63,10.235,27.652,15.825c21.91,13.577,41.756,29.601,57.57,50.205
			c0.657,0.856,1.253,1.761,1.282,1.802c-12.872-10.505-26.233-21.825-40.048-32.56c-12.598-9.789-25.671-18.969-38.598-28.331
			c-0.992-0.719-2.481-0.752-3.739-1.106c0-0.002,0.181-0.008,0.181-0.008C202.616,87.026,201.183,85.084,199.749,83.141z"/>
		<path style="display:none;fill:#FFFFFF;" d="M-232.234,41.961c-0.423,4.353-0.802,8.259-1.181,12.165
			C-236.39,49.591-235.685,44.299-232.234,41.961z"/>
		<path style="display:none;fill:#FFFFFF;" d="M-155.879,131.817c0.703,4.856,1.406,9.713,2.109,14.569
			c-0.582,0.091-1.164,0.182-1.747,0.273c-0.644-4.92-1.288-9.841-1.933-14.761C-156.925,131.871-156.402,131.844-155.879,131.817z"
			/>
		<path style="display:none;fill:#FFFFFF;" d="M-235.02,63.329c3.192,7.245,2.903,9.805,0,11.007
			C-235.02,70.692-235.02,67.01-235.02,63.329z"/>
		<path style="display:none;fill:#FFFFFF;" d="M-205.694,104.463c0.528,3.916,1.057,7.833,1.585,11.749
			c-0.685,0.094-1.371,0.189-2.056,0.283c-0.43-3.931-0.86-7.861-1.29-11.792C-206.868,104.623-206.281,104.543-205.694,104.463z"/>
		<path style="display:none;fill:#FFFFFF;" d="M-263.431,188.345c1.773-2.56,3.546-5.119,5.552-8.014
			c0.806,1.205,1.418,2.12,2.187,3.269c-2.476,1.877-4.801,3.639-7.127,5.402C-263.022,188.783-263.226,188.564-263.431,188.345z"/>
	</g>
</g>
<g id="Layer_2" style="display:none;">
</g>
</svg>
